<svg version="1.0" xmlns="http://www.w3.org/2000/svg" width="682.667" height="682.667" viewBox="0 0 512 512"><path d="M375.1 62.1c-60.4 6.4-103.3 38-115.7 85.4-2.3 8.7-2.6 12-2.7 25.5 0 13.5.3 16.7 2.6 25.2 4.5 17.2 12.8 31.1 26.7 44.9 16.5 16.3 40.4 29.9 76.5 43.4 39.6 14.8 55 26.2 58.5 43.2 4.3 20.3-8.7 38.2-32.6 44.8-8.1 2.3-33.4 3.1-46.1 1.6-21.1-2.7-45.4-9.4-63.2-17.7-5.2-2.4-9.6-4.2-9.9-3.9-.6.5-17.2 67.4-17.2 69.1 0 1.5 13.2 7.5 25.5 11.4 56.9 18.1 123.1 16.5 166.3-4 38.5-18.3 60.3-48.3 64.3-88.6.9-8.6.9-14.2 0-22.8-2.6-25.8-11.1-43.8-29-61.6-15.7-15.6-33.4-25.8-71.9-41.2-40.1-16-54.6-24.8-61-37.2-3.8-7.5-3.8-17.9.1-25.8 4.7-9.5 14.6-16.6 28.9-20.6 8.9-2.4 39.5-2.4 52.3.1 12.9 2.5 25.5 6.3 36.8 10.9 5.4 2.2 10.1 3.7 10.5 3.4 1-1.1 19.1-66.9 18.6-67.7-.8-1.4-20.7-8.6-30.9-11.2-26-6.7-60.7-9.3-87.4-6.6zM111.7 194.2c-.4 139.1-.2 134.4-6.2 150.5-5.3 14.2-15.3 24.2-28.3 28.4-13 4.2-39.1 3.6-57.5-1.3-4.3-1.1-8.1-1.8-8.4-1.4-.4.4-2.6 14.5-4.9 31.4-2.3 16.9-4.5 32.1-4.7 33.9l-.5 3.1 7.9 2.2c31.2 8.4 77.4 8.6 105.7.4 20.6-6 33-13 46.3-26.3 15.5-15.6 24.8-33.3 30.3-58.1 5-22.9 4.9-19.7 5.3-158.8l.4-131.2h-85l-.4 127.2z"/></svg>