<svg xmlns="http://www.w3.org/2000/svg" viewBox="0 0 200 150"><path d="M172.2 86.2c-7 0-13.1 1.7-18.1 4.2-1.9-3.7-3.8-6.9-4.1-9.4-.4-2.8-.8-4.5-.4-7.9.4-3.4 2.4-8.1 2.4-8.5 0-.4-.4-2.1-4.5-2.1-4 0-7.5.8-7.9 1.8-.4 1.1-1.2 3.5-1.7 6-.7 3.7-8.1 16.7-12.2 23.5-1.4-2.7-2.5-5-2.8-6.9-.4-2.8-.8-4.5-.4-7.9.4-3.4 2.4-8.1 2.4-8.5 0-.4-.4-2.1-4.5-2.1-4 0-7.5.8-7.9 1.8-.4 1.1-.8 3.6-1.7 6-.8 2.4-10.6 24.1-13.1 29.8-1.3 2.9-2.4 5.2-3.2 6.8-.8 1.6 0 .1-.1.3-.7 1.3-1.1 2.1-1.1 2.1-.5 1-1.1 1.9-1.4 1.9-.2 0-.6-2.6.1-6.2 1.4-7.5 5-19.3 4.9-19.7 0-.2.7-2.3-2.3-3.3-2.9-1.1-3.9.7-4.1.7-.2 0-.4.6-.4.6s3.2-13.2-6-13.2c-5.8 0-13.8 6.3-17.7 12-2.5 1.4-7.8 4.3-13.4 7.3-2.1 1.2-4.4 2.4-6.5 3.6l-.5-.4c-11.2-12-31.8-20.4-31-36.4.3-5.8 2.3-21.2 39.7-39.7 30.6-15.2 55.1-11 59.4-1.8 6.1 13.3-13.1 37.9-44.9 41.5-12.1 1.4-18.5-3.3-20.1-5.1-1.7-1.8-1.9-1.9-2.5-1.6-1 .5-.4 2.2 0 3.2.9 2.5 4.8 6.8 11.5 9 5.8 1.9 20.1 3 37.3-3.7 19.3-7.5 34.3-28.1 29.9-45.4C120.7 1 91.5-4.8 63.8 5c-16.5 5.9-34.3 15-47.1 27C1.5 46.2-.9 58.6.1 63.7 3.6 82.1 29 94.1 39.2 102.9c-.5.3-1 .5-1.4.8-5.1 2.5-24.4 12.6-29.3 23.3-5.5 12.1.9 20.8 5.1 22 13.1 3.6 26.4-2.9 33.7-13.6 7.2-10.7 6.3-24.7 3-31l-.1-.2 4-2.3c2.6-1.5 5.1-2.9 7.3-4.1-1.3 3.4-2.1 7.4-2.6 13.3-.5 6.9 2.3 15.8 6 19.3 1.6 1.5 3.6 1.6 4.8 1.6 4.3 0 6.3-3.6 8.4-7.8 2.7-5.2 5-11.2 5-11.2s-3 16 5 16c2.9 0 5.9-3.8 7.2-5.7 0 0 .1-.1.2-.4.2-.2.3-.5.5-.7v-.1c1.2-2 3.8-6.7 7.7-14.4 5-9.9 9.9-22.3 9.9-22.3s.5 3 1.9 8c.9 3 2.7 6.2 4.2 9.4-1.2 1.6-1.9 2.6-1.9 2.6-.9 1.2-2 2.6-3.1 3.9-4 4.8-8.8 10.2-9.4 11.7-.7 1.8-.6 3.2.9 4.3 1.1.8 2.9.9 4.9.8 3.6-.2 6.1-1.1 7.3-1.7 2-.7 4.2-1.8 6.3-3.3 3.9-2.9 6.3-7 6.1-12.4-.1-3-1.1-6-2.3-8.8.4-.5.7-1 1.1-1.6 6.2-9 10.9-18.9 10.9-18.9s.5 3 1.9 8c.7 2.5 2.2 5.3 3.6 8-5.8 4.7-9.4 10.2-10.7 13.8-2.3 6.6-.5 9.6 2.9 10.3 1.5.3 3.7-.4 5.4-1.1 2-.7 4.5-1.8 6.8-3.5 3.9-2.9 7.7-6.9 7.5-12.3-.1-2.5-.8-5-1.7-7.3 4.9-2 11.3-3.2 19.4-2.2 17.4 2 20.8 12.9 20.2 17.4-.7 4.5-4.3 7-5.5 7.8-1.2.7-1.6 1-1.5 1.6.2.8.7.8 1.8.6 1.4-.2 9.1-3.7 9.5-12.1.4-10.6-9.8-22.3-27.9-22.2zM38 131.4c-5.7 6.3-13.8 8.7-17.3 6.6-3.7-2.1-2.3-11.4 4.8-18.1 4.3-4.1 9.9-7.8 13.6-10.1.8-.5 2.1-1.2 3.6-2.1.2-.2.4-.2.4-.2.3-.2.6-.4.9-.5 2.6 9.4.1 17.8-6 24.4zm42-28.5c-2 4.9-6.2 17.4-8.8 16.7-2.2-.6-3.5-10.1-.4-19.4 1.6-4.7 4.9-10.3 6.8-12.5 3.2-3.5 6.6-4.7 7.5-3.2 1.1 1.7-3.8 15.3-5.1 18.4zm34.7 16.5c-.9.4-1.6.7-2 .5-.3-.2.4-.7.4-.7s4.3-4.6 6.1-6.8c1-1.2 2.1-2.7 3.4-4.3v.5c-.1 5.5-5.5 9.3-7.9 10.8zm26.7-6.1c-.6-.5-.5-1.9 1.6-6.4.8-1.8 2.7-4.8 5.9-7.6.4 1.2.6 2.3.6 3.4 0 6.9-5 9.5-8.1 10.6z" fill="#cf649a"/></svg>