<?xml version="1.0" encoding="utf-8"?>
<!-- Generator: Adobe Illustrator 23.0.3, SVG Export Plug-In . SVG Version: 6.00 Build 0)  -->
<svg version="1.1"
	 id="Layer_1" xmlns:cc="http://creativecommons.org/ns#" xmlns:dc="http://purl.org/dc/elements/1.1/" xmlns:inkscape="http://www.inkscape.org/namespaces/inkscape" xmlns:rdf="http://www.w3.org/1999/02/22-rdf-syntax-ns#" xmlns:sodipodi="http://sodipodi.sourceforge.net/DTD/sodipodi-0.dtd" xmlns:svg="http://www.w3.org/2000/svg"
	 xmlns="http://www.w3.org/2000/svg" xmlns:xlink="http://www.w3.org/1999/xlink" x="0px" y="0px" viewBox="0 0 200 200"
	 style="enable-background:new 0 0 200 200;" xml:space="preserve">
<style type="text/css">
	.st0{fill:#00A1F1;}
	.st1{fill:#FFFFFF;}
</style>
<g id="g4190" transform="translate(-32.642316,29.549769)">
	<path id="path4952" class="st0" d="M232.6,70.5c0,55.2-44.8,100-100,100s-100-44.8-100-100s44.8-100,100-100
		C187.9-29.5,232.6,15.2,232.6,70.5L232.6,70.5z"/>
	<path id="path5-1-2" class="st1" d="M175.1,5.2c-1,0-2,0-3.1,0.1c-8.5,0.6-17.9,3.1-28.3,7.7c-1.5-0.2-3-0.3-4.4-0.3
		c-14.2,0-26.9,4.3-37.9,13C90.4,34.5,83.3,45.6,80,59c9.2-11.6,19.6-20.2,31-25.7c-1.3,1.1-4.2,4.1-8.9,8.9
		C94.2,49.9,87.3,58.5,81.5,68c-5.8,9.5-10,18.2-12.5,26.2c-2.5,7.9-3.7,15.1-3.7,21.6c0,6.5,1.5,11.1,4.4,13.8
		c8.5,8.5,22.5,8,41.9-1.4c8.7,4.2,17.9,6.4,27.7,6.4c13.1,0,25-3.8,35.5-11.5c10.5-7.6,17.9-17.5,22.2-29.5h-33
		c-2.4,4.2-5.7,7.6-9.8,10.1c-4.2,2.5-8.8,3.7-13.9,3.7c-5.1,0-9.7-1.2-13.9-3.7c-4.2-2.5-7.4-5.9-9.8-10.1c-2-4.1-3.1-8.3-3.1-12.7
		v-0.3H167h32.7c0.2-2,0.3-4.3,0.3-6.9c0-10.9-2.7-21-8-30.5c5.7-15.3,5.1-26.6-1.9-33.8C187,6.6,182,5.2,175.1,5.2L175.1,5.2z
		 M179.7,12.8c4.2,0,7.5,1.3,9.8,3.7c4.6,4.6,4.8,12.6,0.5,24.1c-7-10.7-16.5-18.4-28.3-23.2C168.9,14.2,174.9,12.7,179.7,12.8z
		 M139.2,40.5c6.7,0,12.6,2.4,17.6,7.1c5,4.7,7.7,10.4,8,17h-51.3c0.4-6.6,3-12.3,8-17C126.5,42.9,132.4,40.5,139.2,40.5L139.2,40.5
		z M81.6,94.2c5,13.7,13.7,24.3,26.1,31.8c-14.2,6.5-24,7-29.4,1.7C72.2,121.6,73.3,110.4,81.6,94.2z"/>
</g>
</svg>
