<?xml version="1.0" standalone="no"?>
<!DOCTYPE svg PUBLIC "-//W3C//DTD SVG 20010904//EN"
 "http://www.w3.org/TR/2001/REC-SVG-20010904/DTD/svg10.dtd">
<svg version="1.0" xmlns="http://www.w3.org/2000/svg"
 width="512.000000pt" height="512.000000pt" viewBox="0 0 512.000000 512.000000"
 preserveAspectRatio="xMidYMid meet">
<metadata>
Created by potrace 1.15, written by Peter Selinger 2001-2017
</metadata>
<g transform="translate(0.000000,512.000000) scale(0.100000,-0.100000)"
fill="#000000" stroke="none">
<path d="M3751 4499 c-604 -64 -1033 -380 -1157 -854 -23 -87 -26 -120 -27
-255 0 -135 3 -167 26 -252 45 -172 128 -311 267 -449 165 -163 404 -299 765
-434 396 -148 550 -262 585 -432 43 -203 -87 -382 -326 -448 -81 -23 -334 -31
-461 -16 -211 27 -454 94 -632 177 -52 24 -96 42 -99 39 -6 -5 -172 -674 -172
-691 0 -15 132 -75 255 -114 569 -181 1231 -165 1663 40 385 183 603 483 643
886 9 86 9 142 0 228 -26 258 -111 438 -290 616 -157 156 -334 258 -719 412
-401 160 -546 248 -610 372 -38 75 -38 179 1 258 47 95 146 166 289 206 89 24
395 24 523 -1 129 -25 255 -63 368 -109 54 -22 101 -37 105 -34 10 11 191 669
186 677 -8 14 -207 86 -309 112 -260 67 -607 93 -874 66z"/>
<path d="M1117 3178 c-4 -1391 -2 -1344 -62 -1505 -53 -142 -153 -242 -283
-284 -130 -42 -391 -36 -575 13 -43 11 -81 18 -84 14 -4 -4 -26 -145 -49 -314
-23 -169 -45 -321 -47 -339 l-5 -31 79 -22 c312 -84 774 -86 1057 -4 206 60
330 130 463 263 155 156 248 333 303 581 50 229 49 197 53 1588 l4 1312 -425
0 -425 0 -4 -1272z"/>
</g>
</svg>
