<svg id="Слой_1" data-name="Слой 1" xmlns="http://www.w3.org/2000/svg" viewBox="0 0 256 256"><defs><style>.cls-1{fill:#56b3b4;}.cls-2{fill:#ea5e5e;}.cls-3{fill:#bf85bf;}.cls-4{fill:#f7ba3e;}.cls-5{fill:#d0d4d8;opacity:0.5;isolation:isolate;}</style></defs><title>prettier</title><rect class="cls-1" x="182.86" y="48.76" width="24.38" height="12.19" rx="5"/><rect class="cls-2" y="243.81" width="73.14" height="12.19" rx="5"/><rect class="cls-3" x="146.29" y="146.29" width="48.76" height="12.19" rx="5"/><rect class="cls-2" x="73.14" y="146.29" width="60.95" height="12.19" rx="5"/><rect class="cls-1" y="146.29" width="60.95" height="12.19" rx="5"/><rect class="cls-3" y="195.05" width="73.14" height="12.19" rx="5"/><rect class="cls-3" y="97.52" width="73.14" height="12.19" rx="5"/><rect class="cls-4" x="60.95" y="24.38" width="134.1" height="12.19" rx="5"/><rect class="cls-2" y="24.38" width="48.76" height="12.19" rx="5"/><rect class="cls-4" x="48.76" y="219.43" width="24.38" height="12.19" rx="5"/><rect class="cls-1" x="48.76" y="73.14" width="24.38" height="12.19" rx="5"/><rect class="cls-1" y="219.43" width="36.57" height="12.19" rx="5"/><rect class="cls-4" y="73.14" width="36.57" height="12.19" rx="5"/><rect class="cls-5" x="158.48" y="219.43" width="24.38" height="12.19" rx="5"/><rect class="cls-5" x="85.33" y="219.43" width="60.95" height="12.19" rx="5"/><rect class="cls-5" x="195.05" y="219.43" width="60.95" height="12.19" rx="5"/><rect class="cls-1" x="97.52" y="121.9" width="109.71" height="12.19" rx="5"/><rect class="cls-4" x="36.57" y="121.9" width="48.76" height="12.19" rx="5"/><rect class="cls-2" y="121.9" width="24.38" height="12.19" rx="5"/><rect class="cls-3" x="109.71" y="48.76" width="60.95" height="12.19" rx="5"/><rect class="cls-1" y="48.76" width="97.52" height="12.19" rx="5"/><rect class="cls-4" x="36.57" y="170.67" width="121.9" height="12.19" rx="5"/><rect class="cls-3" y="170.67" width="24.38" height="12.19" rx="5"/><rect class="cls-2" x="146.29" y="73.14" width="73.14" height="12.19" rx="5"/><rect class="cls-4" x="146.29" y="97.52" width="73.14" height="12.19" rx="5"/><rect class="cls-1" width="158.48" height="12.19" rx="5"/><rect class="cls-5" x="170.67" width="85.33" height="12.19" rx="5"/><rect class="cls-5" x="170.67" y="170.67" width="36.57" height="12.19" rx="5"/><rect class="cls-5" x="219.43" y="170.67" width="36.57" height="12.19" rx="5"/><rect class="cls-5" x="207.24" y="146.29" width="48.76" height="12.19" rx="5"/><rect class="cls-5" x="207.24" y="24.38" width="48.76" height="12.19" rx="5"/><rect class="cls-5" x="219.43" y="121.9" width="36.57" height="12.19" rx="5"/><rect class="cls-5" x="219.43" y="48.76" width="36.57" height="12.19" rx="5"/><rect class="cls-5" x="231.62" y="73.14" width="24.38" height="12.19" rx="5"/><rect class="cls-5" x="231.62" y="97.52" width="24.38" height="12.19" rx="5"/><rect class="cls-5" x="134.1" y="195.05" width="121.9" height="12.19" rx="5"/><rect class="cls-5" x="85.33" y="195.05" width="36.57" height="12.19" rx="5"/><rect class="cls-5" x="182.86" y="243.81" width="73.14" height="12.19" rx="5"/><rect class="cls-5" x="85.33" y="243.81" width="85.33" height="12.19" rx="5"/><rect class="cls-5" x="85.33" y="73.14" width="48.76" height="12.19" rx="5"/><rect class="cls-5" x="85.33" y="97.52" width="48.76" height="12.19" rx="5"/></svg>