<svg id="Layer_1" data-name="Layer 1" xmlns="http://www.w3.org/2000/svg" viewBox="0 0 2502.42 1539.49"><defs><style>.cls-1{fill:#efcca3;}.cls-2{fill:#ccac8d;}.cls-3{fill:#fff;}.cls-4{fill:#56332b;}.cls-5{fill:#442823;}.cls-6{fill:#7f4a41;}.cls-7{fill:#331712;}</style></defs><title>pug-logo</title><path class="cls-1" d="M2097.66,994.14c-3.91-85.94,7.81-162.11-31.25-226.56-93.75-160.16-328.13-253.91-796.88-253.91v13.67h0V513.67c-468.75,0-714.84,93.75-808.59,255.86-37.11,66.41-33.21,140.63-39.07,226.56-3.9,68.36-35.15,140.63-21.48,218.75C416,1316.41,421.87,1418,437.5,1511.72c11.72,76.17,117.19,140.62,127,212.89,27.35,199.22,234.38,291,703.13,291v15.62h2v-15.62c468.75,0,668-91.8,693.36-291,9.77-74.22,107.42-136.72,119.14-212.89,15.63-93.75,21.49-195.31,37.11-296.88,13.67-78.12-17.58-152.34-21.48-220.7Z" transform="translate(-3.67 -513.67)"/><path class="cls-2" d="M1261.72,1064.45c84,2,142.58,54.69,197.26,103.52,64.46,56.64,173.83,95.7,218.75,144.53s103.52,97.66,125,173.83,27.35,173.83,27.35,199.22,13.67,19.53,52.73,0c91.8-44.93,193.36-166,193.36-166-11.72,76.17-111.33,144.53-121.09,216.8-23.44,199.22-216.8,294.92-695.31,294.92h9.76" transform="translate(-3.67 -513.67)"/><path class="cls-2" d="M1570.31,912.11c17.58,60.55,80.08,265.62-41,197.27,0,0,50.78,29.29,82,140.62,33.2,111.33,113.28,125,113.28,125s130.86,25.39,228.52-58.59c82-70.32,95.7-195.32,60.54-291-35.15-93.75-97.65-123.05-189.45-142.58C1732.42,861.33,1548.83,843.75,1570.31,912.11Z" transform="translate(-3.67 -513.67)"/><circle cx="1799.06" cy="621.09" r="171.88"/><circle class="cls-3" cx="1754.14" cy="544.92" r="44.92"/><path class="cls-1" d="M1541,1127s154.29,105.47,238.28,209,82,123,82,123l-60.55,27.35s-85.94-162.11-191.41-222.66c-107.42-60.54-119.14-111.33-119.14-111.33L1541,1127Z" transform="translate(-3.67 -513.67)"/><path class="cls-2" d="M1267.58,1064.45c-84,2-146.49,54.69-203.13,103.52-64.45,56.64-177.73,95.7-222.65,144.53s-105.47,97.66-127,173.83-29.29,173.83-29.29,199.22,3.9,27.34-52.74,0c-91.79-43-193.36-166-193.36-166,11.72,76.17,111.33,144.53,121.1,216.8,27.34,199.22,220.7,294.92,699.22,294.92h9.76" transform="translate(-3.67 -513.67)"/><path class="cls-4" d="M1720.7,1394.53c-93.75-115.23-244.14-222.65-453.12-222.65h-1.95c-209,0-359.38,107.42-453.13,222.65-97.66,119.14-89.84,166-89.84,279.3,0,410.15,144.53,293,240.23,343.75,97.66,48.83,199.22,33.2,302.74,33.2h1.95c105.47,0,205.08,13.67,302.73-35.16,95.71-48.82,240.24,72.27,240.24-337.89,2-113.28,7.81-164.06-89.85-283.2Z" transform="translate(-3.67 -513.67)"/><path class="cls-5" d="M1257.81,1273.44s-13.67,189.45-41,226.56l50.78-11.72Z" transform="translate(-3.67 -513.67)"/><path class="cls-5" d="M1271.48,1273.44s13.68,189.45,41,226.56l-50.78-11.72Z" transform="translate(-3.67 -513.67)"/><path class="cls-4" d="M1107.42,1228.52c-19.53-44.93,50.78-117.19,162.11-119.14,111.33,0,181.64,72.26,162.11,119.14s-89.84,60.54-162.11,62.5c-70.31-2-142.58-15.63-162.11-62.5Z" transform="translate(-3.67 -513.67)"/><path d="M1269.53,1273.44c0-7.82,66.41-9.77,101.56-33.21,0,0-72.26,23.44-87.89,13.68-15.62-7.82-19.53-31.25-19.53-31.25s-5.86,23.43-17.58,31.25c-13.67,7.81-95.7-13.68-95.7-13.68s109.38,27.35,109.38,33.21-2,25.39-2,39.06c0,48.83,0,169.92,7.81,179.69,11.72,17.58,7.82-130.86,7.82-179.69C1271.48,1296.87,1271.48,1281.25,1269.53,1273.44Z" transform="translate(-3.67 -513.67)"/><path class="cls-6" d="M1273.44,1535.16c33.2,0,91.79,23.43,144.53,60.54-50.78-56.64-111.33-95.7-144.53-95.7-35.16,0-109.38,43-162.11,105.47C1166,1562.5,1236.33,1535.16,1273.44,1535.16Z" transform="translate(-3.67 -513.67)"/><path class="cls-5" d="M1259.77,1880.86c-74.22,0-146.49-23.44-212.9-41-13.67-3.9-27.34,5.86-41,2-123.05-39.07-222.66-105.47-283.2-189.46v19.54c0,410.15,144.53,294.92,240.23,343.75,97.66,48.82,199.22,33.2,302.74,33.2h1.95c105.47,0,205.08,13.67,302.73-35.16,95.71-48.83,240.24,70.31,240.24-339.84,0-15.63,0-31.25,2-44.92-56.64,91.79-160.16,164.06-289.06,207-11.72,3.9-39.06-5.86-50.78-3.91-70.32,23.44-132.82,48.83-212.89,48.83Z" transform="translate(-3.67 -513.67)"/><path class="cls-5" d="M1074.22,1660.16s-48.83,146.48-15.63,210.93l-44.92-19.53S1046.88,1703.13,1074.22,1660.16Zm386.72,0s48.83,146.48,15.62,210.93l44.92-19.53s-35.15-148.43-60.54-191.4Z" transform="translate(-3.67 -513.67)"/><path class="cls-2" d="M949.22,912.11c-17.58,60.55-80.08,265.62,41,197.27,0,0-50.78,29.29-82,140.62s-113.28,125-113.28,125-130.86,25.39-228.51-58.59c-82-70.32-95.71-195.32-60.55-291s97.66-123.05,189.45-142.58c91.8-21.48,273.44-39.06,253.91,29.3Z" transform="translate(-3.67 -513.67)"/><path d="M1267.58,1500c52.73,0,216.8,113.28,218.75,252v-7.81c0-144.53-132.81-259.76-218.75-259.76s-218.75,117.18-218.75,259.76V1752C1050.78,1613.28,1214.84,1500,1267.58,1500Z" transform="translate(-3.67 -513.67)"/><ellipse class="cls-7" cx="1302.9" cy="1201.21" rx="15.63" ry="29.3" transform="translate(-262.42 -150.15) rotate(-14.47)"/><ellipse class="cls-7" cx="1218.5" cy="1201.31" rx="29.3" ry="15.62" transform="translate(-293.57 1495.49) rotate(-72.76)"/><circle cx="722.89" cy="621.09" r="171.88"/><circle class="cls-3" cx="767.81" cy="544.92" r="44.92"/><path class="cls-6" d="M1318.36,1136.72c0-2-44.92,19.53-56.64,21.48-11.72-2-56.64-23.43-56.64-21.48Z" transform="translate(-3.67 -513.67)"/><path class="cls-1" d="M976.56,1127s-154.29,105.47-238.28,209-82,123-82,123l60.55,27.35s85.93-162.11,191.4-222.66,119.14-111.33,119.14-111.33Z" transform="translate(-3.67 -513.67)"/><path class="cls-2" d="M638.67,814.45S585.94,959,468.75,1019.53C468.75,1019.53,652.34,998.05,638.67,814.45Zm1232.42,0S1923.83,959,2041,1019.53C2041,1019.53,1857.42,998.05,1871.09,814.45Zm-334,269.53s-115.24-121.09-269.53-125h3.9C1115.23,962.89,1002,1084,1002,1084c134.77-93.75,250-91.79,269.53-91.79-2,0,130.86-2,265.63,91.79Zm-134.77-253.9s-58.59-82-136.71-84h3.9c-58.59,2-134.76,84-134.76,84,66.4-64.45,134.76-62.5,134.76-62.5S1334,765.63,1402.34,830.08ZM726.56,1429.69s-91.79,44.92-158.2,17.58h-2c-58.6-33.21-87.89-132.82-87.89-132.82S537.11,1490.23,726.56,1429.69Zm1070.32,0s91.79,44.92,158.2,17.58c78.12-33.21,89.84-132.82,89.84-132.82S1986.33,1490.23,1796.88,1429.69Z" transform="translate(-3.67 -513.67)"/><path class="cls-2" d="M832,804.69c50.78-9.77,134.77-11.72,201.17,9.76,84,29.3,15.63,136.72,33.21,142.58s41-74.22,197.26-66.41c158.2,7.82,175.78,78.13,197.27,66.41s-21.49-195.31,214.84-152.34c0,0-248-66.41-236.33,113.28,0,0-142.58-109.38-341.79-11.72C1099.61,906.25,1150.39,738.28,832,804.69Zm865.24,0c3.9,0,5.86,1.95,7.81,1.95S1703.13,804.69,1697.27,804.69ZM763.67,564.45S552.73,830.08,521.48,931.64c-31.25,103.52-54.68,527.34-82,587.89l-97.65-418L521.48,666,763.67,564.45Zm992.19,0s210.94,265.63,242.19,367.19c31.25,103.52,54.68,527.34,82,587.89l97.65-418L1998.05,666,1755.86,564.45Z" transform="translate(-3.67 -513.67)"/><path class="cls-4" d="M1746.09,564.45s226.57,189.46,293,408.21,39.07,484.37,89.85,517.57c72.26,46.88,154.29-232.42,181.64-261.71,43-46.88,185.54-166,195.31-187.5S2216.8,693.36,2085.94,628.91c-158.21-74.22-353.52-80.08-339.85-64.46Z" transform="translate(-3.67 -513.67)"/><path class="cls-5" d="M1939.45,681.64s267.58,341.8,263.68,767.58l107.42-218.75c-2,0-95.71-279.3-371.1-548.83Z" transform="translate(-3.67 -513.67)"/><path class="cls-4" d="M763.67,564.45s-226.56,189.46-293,408.21S431.64,1457,380.86,1490.23c-72.27,46.88-154.3-232.42-181.64-261.71-43-46.88-185.55-166-195.31-187.5S293,693.36,423.83,628.91c158.2-74.22,353.51-80.08,339.84-64.46Z" transform="translate(-3.67 -513.67)"/><path class="cls-5" d="M570.31,681.64s-267.58,341.8-263.67,767.58L201.17,1230.47S294.92,951.17,570.31,681.64Z" transform="translate(-3.67 -513.67)"/><path class="cls-2" d="M425.78,1457s19.53,105.47,50.78,138.67,9.77-25.39,9.77-25.39S453.12,1552.73,459,1418s-33.2,39.06-33.2,39.06Zm1666,0S2072.27,1562.5,2041,1595.7s-9.77-25.39-9.77-25.39,33.2-17.58,27.34-152.34S2091.8,1457,2091.8,1457Z" transform="translate(-3.67 -513.67)"/><circle class="cls-5" cx="1060.78" cy="863.28" r="15.63"/><circle class="cls-5" cx="970.94" cy="957.03" r="15.63"/><circle class="cls-5" cx="941.64" cy="863.28" r="15.63"/><circle class="cls-5" cx="1441.64" cy="863.28" r="15.63"/><circle class="cls-5" cx="1531.48" cy="957.03" r="15.63"/><circle class="cls-5" cx="1560.78" cy="863.28" r="15.63"/></svg>