<?xml version="1.0" encoding="utf-8"?>
<!-- Generator: Adobe Illustrator 23.0.3, SVG Export Plug-In . SVG Version: 6.00 Build 0)  -->
<svg version="1.1" id="Слой_1" xmlns="http://www.w3.org/2000/svg" xmlns:xlink="http://www.w3.org/1999/xlink" x="0px" y="0px"
	 viewBox="0 0 200 150" style="enable-background:new 0 0 200 150;" xml:space="preserve">
<style type="text/css">
	.st0{fill:#CF649A;}
</style>
<path class="st0" d="M172.2,86.2c-7,0-13.1,1.7-18.1,4.2c-1.9-3.7-3.8-6.9-4.1-9.4c-0.4-2.8-0.8-4.5-0.4-7.9
	c0.4-3.4,2.4-8.1,2.4-8.5c0-0.4-0.4-2.1-4.5-2.1c-4,0-7.5,0.8-7.9,1.8c-0.4,1.1-1.2,3.5-1.7,6c-0.7,3.7-8.1,16.7-12.2,23.5
	c-1.4-2.7-2.5-5-2.8-6.9c-0.4-2.8-0.8-4.5-0.4-7.9c0.4-3.4,2.4-8.1,2.4-8.5c0-0.4-0.4-2.1-4.5-2.1c-4,0-7.5,0.8-7.9,1.8
	c-0.4,1.1-0.8,3.6-1.7,6c-0.8,2.4-10.6,24.1-13.1,29.8c-1.3,2.9-2.4,5.2-3.2,6.8c-0.8,1.6,0,0.1-0.1,0.3c-0.7,1.3-1.1,2.1-1.1,2.1v0
	c-0.5,1-1.1,1.9-1.4,1.9c-0.2,0-0.6-2.6,0.1-6.2c1.4-7.5,5-19.3,4.9-19.7c0-0.2,0.7-2.3-2.3-3.3c-2.9-1.1-3.9,0.7-4.1,0.7
	c-0.2,0-0.4,0.6-0.4,0.6S93.3,76,84.1,76c-5.8,0-13.8,6.3-17.7,12c-2.5,1.4-7.8,4.3-13.4,7.3c-2.1,1.2-4.4,2.4-6.5,3.6L46,98.5
	C34.8,86.5,14.2,78.1,15,62.1c0.3-5.8,2.3-21.2,39.7-39.7c30.6-15.2,55.1-11,59.4-1.8c6.1,13.3-13.1,37.9-44.9,41.5
	c-12.1,1.4-18.5-3.3-20.1-5.1c-1.7-1.8-1.9-1.9-2.5-1.6c-1,0.5-0.4,2.2,0,3.2c0.9,2.5,4.8,6.8,11.5,9c5.8,1.9,20.1,3,37.3-3.7
	c19.3-7.5,34.3-28.1,29.9-45.4C120.7,1,91.5-4.8,63.8,5c-16.5,5.9-34.3,15-47.1,27C1.5,46.2-0.9,58.6,0.1,63.7
	C3.6,82.1,29,94.1,39.2,102.9c-0.5,0.3-1,0.5-1.4,0.8c-5.1,2.5-24.4,12.6-29.3,23.3c-5.5,12.1,0.9,20.8,5.1,22
	c13.1,3.6,26.4-2.9,33.7-13.6c7.2-10.7,6.3-24.7,3-31l-0.1-0.2l4-2.3c2.6-1.5,5.1-2.9,7.3-4.1c-1.3,3.4-2.1,7.4-2.6,13.3
	c-0.5,6.9,2.3,15.8,6,19.3c1.6,1.5,3.6,1.6,4.8,1.6c4.3,0,6.3-3.6,8.4-7.8c2.7-5.2,5-11.2,5-11.2S80.1,129,88.1,129
	c2.9,0,5.9-3.8,7.2-5.7v0c0,0,0.1-0.1,0.2-0.4c0.2-0.2,0.3-0.5,0.5-0.7v-0.1c1.2-2,3.8-6.7,7.7-14.4c5-9.9,9.9-22.3,9.9-22.3
	s0.5,3,1.9,8c0.9,3,2.7,6.2,4.2,9.4c-1.2,1.6-1.9,2.6-1.9,2.6l0,0c-0.9,1.2-2,2.6-3.1,3.9c-4,4.8-8.8,10.2-9.4,11.7
	c-0.7,1.8-0.6,3.2,0.9,4.3c1.1,0.8,2.9,0.9,4.9,0.8c3.6-0.2,6.1-1.1,7.3-1.7c2-0.7,4.2-1.8,6.3-3.3c3.9-2.9,6.3-7,6.1-12.4
	c-0.1-3-1.1-6-2.3-8.8c0.4-0.5,0.7-1,1.1-1.6c6.2-9,10.9-18.9,10.9-18.9s0.5,3,1.9,8c0.7,2.5,2.2,5.3,3.6,8
	c-5.8,4.7-9.4,10.2-10.7,13.8c-2.3,6.6-0.5,9.6,2.9,10.3c1.5,0.3,3.7-0.4,5.4-1.1c2-0.7,4.5-1.8,6.8-3.5c3.9-2.9,7.7-6.9,7.5-12.3
	c-0.1-2.5-0.8-5-1.7-7.3c4.9-2,11.3-3.2,19.4-2.2c17.4,2,20.8,12.9,20.2,17.4c-0.7,4.5-4.3,7-5.5,7.8c-1.2,0.7-1.6,1-1.5,1.6
	c0.2,0.8,0.7,0.8,1.8,0.6c1.4-0.2,9.1-3.7,9.5-12.1C200.5,97.8,190.3,86.1,172.2,86.2L172.2,86.2z M38,131.4
	c-5.7,6.3-13.8,8.7-17.3,6.6c-3.7-2.1-2.3-11.4,4.8-18.1c4.3-4.1,9.9-7.8,13.6-10.1c0.8-0.5,2.1-1.2,3.6-2.1
	c0.2-0.2,0.4-0.2,0.4-0.2c0.3-0.2,0.6-0.4,0.9-0.5C46.6,116.4,44.1,124.8,38,131.4L38,131.4z M80,102.9c-2,4.9-6.2,17.4-8.8,16.7
	c-2.2-0.6-3.5-10.1-0.4-19.4c1.6-4.7,4.9-10.3,6.8-12.5c3.2-3.5,6.6-4.7,7.5-3.2C86.2,86.2,81.3,99.8,80,102.9z M114.7,119.4
	c-0.9,0.4-1.6,0.7-2,0.5c-0.3-0.2,0.4-0.7,0.4-0.7s4.3-4.6,6.1-6.8c1-1.2,2.1-2.7,3.4-4.3v0.5C122.5,114.1,117.1,117.9,114.7,119.4
	L114.7,119.4z M141.4,113.3c-0.6-0.5-0.5-1.9,1.6-6.4c0.8-1.8,2.7-4.8,5.9-7.6c0.4,1.2,0.6,2.3,0.6,3.4
	C149.5,109.6,144.5,112.2,141.4,113.3z"/>
</svg>
