<svg width="256" height="184" xmlns="http://www.w3.org/2000/svg" preserveAspectRatio="xMidYMid"><path fill="#f53b57" d="M21.062 0h32.815v25H21.062z"/><path fill="#f5f6fa" d="M55.273 0h69.004v25H55.273z"/><path fill="#4cd137" d="M126.138 0h129.047v25H126.138z"/><path fill="#fd9644" d="M21.062 52.945h81.236v25H21.062z"/><path fill="#0fbcf9" d="M167.796 52.945h98.996v25h-98.996z"/><path fill="#a55eea" d="M104.611 52.945h61.207v25h-61.207z"/><path fill="#05c46b" d="M22.225 104.727h59.229v25H22.225z"/><path fill="#ff5e57" d="M82.735 104.727h83.2v25h-83.2z"/><path fill="#0fb9b1" d="M167.796 104.727h85.644v25h-85.644z"/><path fill="#FBEC06" d="M109.615 158.255h71.796v25h-71.796z"/><path fill="#f53b57" d="M184.087 158.255h80.611v25h-80.611z"/><path fill="#d2dae2" d="M21.062 158.255h86.589v25H21.062z"/></svg>