<svg xmlns="http://www.w3.org/2000/svg" viewBox="0 0 200 200"><path d="M199.958 100.05c0 55.2-44.8 100-100 100s-100-44.8-100-100 44.8-100 100-100c55.3 0 100 44.7 100 100z" fill="#00a1f1"/><path d="M142.458 34.75c-1 0-2 0-3.1.1-8.5.6-17.9 3.1-28.3 7.7-1.5-.2-3-.3-4.4-.3-14.2 0-26.9 4.3-37.9 13-11 8.8-18.1 19.9-21.4 33.3 9.2-11.6 19.6-20.2 31-25.7-1.3 1.1-4.2 4.1-8.9 8.9-7.9 7.7-14.8 16.3-20.6 25.8-5.8 9.5-10 18.2-12.5 26.2-2.5 7.9-3.7 15.1-3.7 21.6 0 6.5 1.5 11.1 4.4 13.8 8.5 8.5 22.5 8 41.9-1.4 8.7 4.2 17.9 6.4 27.7 6.4 13.1 0 25-3.8 35.5-11.5 10.5-7.6 17.9-17.5 22.2-29.5h-33c-2.4 4.2-5.7 7.6-9.8 10.1-4.2 2.5-8.8 3.7-13.9 3.7s-9.7-1.2-13.9-3.7c-4.2-2.5-7.4-5.9-9.8-10.1-2-4.1-3.1-8.3-3.1-12.7v-.3h86.2c.2-2 .3-4.3.3-6.9 0-10.9-2.7-21-8-30.5 5.7-15.3 5.1-26.6-1.9-33.8-3.1-2.8-8.1-4.2-15-4.2zm4.6 7.6c4.2 0 7.5 1.3 9.8 3.7 4.6 4.6 4.8 12.6.5 24.1-7-10.7-16.5-18.4-28.3-23.2 7.2-3.2 13.2-4.7 18-4.6zm-40.5 27.7c6.7 0 12.6 2.4 17.6 7.1 5 4.7 7.7 10.4 8 17h-51.3c.4-6.6 3-12.3 8-17 5-4.7 10.9-7.1 17.7-7.1zm-57.6 53.7c5 13.7 13.7 24.3 26.1 31.8-14.2 6.5-24 7-29.4 1.7-6.1-6.1-5-17.3 3.3-33.5z" fill="#fff"/></svg>